<mxfile host="Electron" agent="Mozilla/5.0 (Windows NT 10.0; Win64; x64) AppleWebKit/537.36 (KHTML, like Gecko) draw.io/26.0.16 Chrome/132.0.6834.196 Electron/34.2.0 Safari/537.36" version="26.0.16">
  <diagram name="Page-1" id="k5IomObVRiSm-QvrrjtV">
    <mxGraphModel dx="1969" dy="984" grid="1" gridSize="10" guides="1" tooltips="1" connect="1" arrows="1" fold="1" page="1" pageScale="1" pageWidth="1169" pageHeight="827" math="0" shadow="0">
      <root>
        <mxCell id="0" />
        <mxCell id="1" parent="0" />
        <mxCell id="yOAL5EZe46vmhs-vISSW-1" value="Organizzatore/Staffer" style="shape=umlActor;verticalLabelPosition=bottom;verticalAlign=top;html=1;" parent="1" vertex="1">
          <mxGeometry x="160" y="90" width="30" height="60" as="geometry" />
        </mxCell>
        <mxCell id="yOAL5EZe46vmhs-vISSW-2" value="" style="html=1;points=[[0,0,0,0,5],[0,1,0,0,-5],[1,0,0,0,5],[1,1,0,0,-5]];perimeter=orthogonalPerimeter;outlineConnect=0;targetShapes=umlLifeline;portConstraint=eastwest;newEdgeStyle={&quot;curved&quot;:0,&quot;rounded&quot;:0};" parent="1" vertex="1">
          <mxGeometry x="170" y="180" width="10" height="180" as="geometry" />
        </mxCell>
        <mxCell id="yOAL5EZe46vmhs-vISSW-3" value="login" style="html=1;verticalAlign=bottom;endArrow=block;edgeStyle=elbowEdgeStyle;elbow=vertical;curved=0;rounded=0;" parent="1" edge="1">
          <mxGeometry x="-0.0028" relative="1" as="geometry">
            <mxPoint x="180" y="190" as="sourcePoint" />
            <Array as="points">
              <mxPoint x="265" y="190" />
            </Array>
            <mxPoint x="285" y="190" as="targetPoint" />
            <mxPoint as="offset" />
          </mxGeometry>
        </mxCell>
        <mxCell id="yOAL5EZe46vmhs-vISSW-4" value="" style="group" parent="1" vertex="1" connectable="0">
          <mxGeometry x="240" y="40" width="100" height="210" as="geometry" />
        </mxCell>
        <mxCell id="yOAL5EZe46vmhs-vISSW-5" value="LoginPage" style="shape=umlLifeline;perimeter=lifelinePerimeter;whiteSpace=wrap;html=1;container=0;dropTarget=0;collapsible=0;recursiveResize=0;outlineConnect=0;portConstraint=eastwest;newEdgeStyle={&quot;edgeStyle&quot;:&quot;elbowEdgeStyle&quot;,&quot;elbow&quot;:&quot;vertical&quot;,&quot;curved&quot;:0,&quot;rounded&quot;:0};" parent="yOAL5EZe46vmhs-vISSW-4" vertex="1">
          <mxGeometry width="100" height="210" as="geometry" />
        </mxCell>
        <mxCell id="yOAL5EZe46vmhs-vISSW-6" value="" style="html=1;points=[[0,0,0,0,5],[0,1,0,0,-5],[1,0,0,0,5],[1,1,0,0,-5]];perimeter=orthogonalPerimeter;outlineConnect=0;targetShapes=umlLifeline;portConstraint=eastwest;newEdgeStyle={&quot;curved&quot;:0,&quot;rounded&quot;:0};" parent="yOAL5EZe46vmhs-vISSW-4" vertex="1">
          <mxGeometry x="45" y="130" width="10" height="80" as="geometry" />
        </mxCell>
        <mxCell id="yOAL5EZe46vmhs-vISSW-7" value="dispatch" style="html=1;verticalAlign=bottom;endArrow=block;edgeStyle=elbowEdgeStyle;elbow=vertical;curved=0;rounded=0;" parent="1" source="yOAL5EZe46vmhs-vISSW-6" target="yOAL5EZe46vmhs-vISSW-10" edge="1">
          <mxGeometry relative="1" as="geometry">
            <mxPoint x="300" y="190" as="sourcePoint" />
            <Array as="points">
              <mxPoint x="350" y="190" />
            </Array>
            <mxPoint x="390" y="190" as="targetPoint" />
          </mxGeometry>
        </mxCell>
        <mxCell id="yOAL5EZe46vmhs-vISSW-8" value="" style="group" parent="1" vertex="1" connectable="0">
          <mxGeometry x="350" y="40" width="100" height="270" as="geometry" />
        </mxCell>
        <mxCell id="yOAL5EZe46vmhs-vISSW-9" value="EventsPage" style="shape=umlLifeline;perimeter=lifelinePerimeter;whiteSpace=wrap;html=1;container=0;dropTarget=0;collapsible=0;recursiveResize=0;outlineConnect=0;portConstraint=eastwest;newEdgeStyle={&quot;edgeStyle&quot;:&quot;elbowEdgeStyle&quot;,&quot;elbow&quot;:&quot;vertical&quot;,&quot;curved&quot;:0,&quot;rounded&quot;:0};" parent="yOAL5EZe46vmhs-vISSW-8" vertex="1">
          <mxGeometry width="100" height="210" as="geometry" />
        </mxCell>
        <mxCell id="yOAL5EZe46vmhs-vISSW-10" value="" style="html=1;points=[[0,0,0,0,5],[0,1,0,0,-5],[1,0,0,0,5],[1,1,0,0,-5]];perimeter=orthogonalPerimeter;outlineConnect=0;targetShapes=umlLifeline;portConstraint=eastwest;newEdgeStyle={&quot;curved&quot;:0,&quot;rounded&quot;:0};" parent="yOAL5EZe46vmhs-vISSW-8" vertex="1">
          <mxGeometry x="45" y="130" width="10" height="120" as="geometry" />
        </mxCell>
        <mxCell id="yOAL5EZe46vmhs-vISSW-11" value="selectEvento" style="html=1;verticalAlign=bottom;endArrow=block;edgeStyle=elbowEdgeStyle;elbow=vertical;curved=0;rounded=0;" parent="1" edge="1">
          <mxGeometry x="-0.0028" relative="1" as="geometry">
            <mxPoint x="410" y="190" as="sourcePoint" />
            <Array as="points">
              <mxPoint x="495" y="190" />
            </Array>
            <mxPoint x="515" y="190" as="targetPoint" />
            <mxPoint as="offset" />
          </mxGeometry>
        </mxCell>
        <mxCell id="yOAL5EZe46vmhs-vISSW-12" value="" style="group" parent="1" vertex="1" connectable="0">
          <mxGeometry x="460" y="40" width="100" height="210" as="geometry" />
        </mxCell>
        <mxCell id="yOAL5EZe46vmhs-vISSW-13" value="MainPage" style="shape=umlLifeline;perimeter=lifelinePerimeter;whiteSpace=wrap;html=1;container=0;dropTarget=0;collapsible=0;recursiveResize=0;outlineConnect=0;portConstraint=eastwest;newEdgeStyle={&quot;edgeStyle&quot;:&quot;elbowEdgeStyle&quot;,&quot;elbow&quot;:&quot;vertical&quot;,&quot;curved&quot;:0,&quot;rounded&quot;:0};" parent="yOAL5EZe46vmhs-vISSW-12" vertex="1">
          <mxGeometry width="100" height="210" as="geometry" />
        </mxCell>
        <mxCell id="yOAL5EZe46vmhs-vISSW-14" value="" style="html=1;points=[[0,0,0,0,5],[0,1,0,0,-5],[1,0,0,0,5],[1,1,0,0,-5]];perimeter=orthogonalPerimeter;outlineConnect=0;targetShapes=umlLifeline;portConstraint=eastwest;newEdgeStyle={&quot;curved&quot;:0,&quot;rounded&quot;:0};" parent="yOAL5EZe46vmhs-vISSW-12" vertex="1">
          <mxGeometry x="45" y="130" width="10" height="80" as="geometry" />
        </mxCell>
        <mxCell id="yOAL5EZe46vmhs-vISSW-15" value="return" style="html=1;verticalAlign=bottom;endArrow=open;dashed=1;endSize=8;curved=0;rounded=0;entryX=1.5;entryY=0.625;entryDx=0;entryDy=0;entryPerimeter=0;" parent="yOAL5EZe46vmhs-vISSW-12" source="yOAL5EZe46vmhs-vISSW-10" edge="1">
          <mxGeometry relative="1" as="geometry">
            <mxPoint x="262.5" y="180" as="sourcePoint" />
            <mxPoint x="-162.5" y="180" as="targetPoint" />
          </mxGeometry>
        </mxCell>
        <mxCell id="yOAL5EZe46vmhs-vISSW-16" value="ingresso" style="html=1;verticalAlign=bottom;endArrow=block;edgeStyle=elbowEdgeStyle;elbow=horizontal;curved=0;rounded=0;" parent="1" source="yOAL5EZe46vmhs-vISSW-14" target="yOAL5EZe46vmhs-vISSW-41" edge="1">
          <mxGeometry relative="1" as="geometry">
            <mxPoint x="520" y="190" as="sourcePoint" />
            <Array as="points">
              <mxPoint x="570" y="190" />
            </Array>
            <mxPoint x="610" y="200" as="targetPoint" />
            <mxPoint as="offset" />
          </mxGeometry>
        </mxCell>
        <mxCell id="yOAL5EZe46vmhs-vISSW-17" value="" style="group" parent="1" vertex="1" connectable="0">
          <mxGeometry x="680" y="40" width="100" height="310" as="geometry" />
        </mxCell>
        <mxCell id="yOAL5EZe46vmhs-vISSW-18" value="Controller" style="shape=umlLifeline;perimeter=lifelinePerimeter;whiteSpace=wrap;html=1;container=0;dropTarget=0;collapsible=0;recursiveResize=0;outlineConnect=0;portConstraint=eastwest;newEdgeStyle={&quot;edgeStyle&quot;:&quot;elbowEdgeStyle&quot;,&quot;elbow&quot;:&quot;vertical&quot;,&quot;curved&quot;:0,&quot;rounded&quot;:0};" parent="yOAL5EZe46vmhs-vISSW-17" vertex="1">
          <mxGeometry width="100" height="210" as="geometry" />
        </mxCell>
        <mxCell id="yOAL5EZe46vmhs-vISSW-19" value="" style="html=1;points=[[0,0,0,0,5],[0,1,0,0,-5],[1,0,0,0,5],[1,1,0,0,-5]];perimeter=orthogonalPerimeter;outlineConnect=0;targetShapes=umlLifeline;portConstraint=eastwest;newEdgeStyle={&quot;curved&quot;:0,&quot;rounded&quot;:0};" parent="yOAL5EZe46vmhs-vISSW-17" vertex="1">
          <mxGeometry x="45" y="130" width="10" height="180" as="geometry" />
        </mxCell>
        <mxCell id="yOAL5EZe46vmhs-vISSW-25" value="" style="group" parent="1" vertex="1" connectable="0">
          <mxGeometry x="790" y="40" width="100" height="310" as="geometry" />
        </mxCell>
        <mxCell id="yOAL5EZe46vmhs-vISSW-26" value="Persistance" style="shape=umlLifeline;perimeter=lifelinePerimeter;whiteSpace=wrap;html=1;container=0;dropTarget=0;collapsible=0;recursiveResize=0;outlineConnect=0;portConstraint=eastwest;newEdgeStyle={&quot;edgeStyle&quot;:&quot;elbowEdgeStyle&quot;,&quot;elbow&quot;:&quot;vertical&quot;,&quot;curved&quot;:0,&quot;rounded&quot;:0};" parent="yOAL5EZe46vmhs-vISSW-25" vertex="1">
          <mxGeometry width="100" height="210" as="geometry" />
        </mxCell>
        <mxCell id="yOAL5EZe46vmhs-vISSW-27" value="" style="html=1;points=[[0,0,0,0,5],[0,1,0,0,-5],[1,0,0,0,5],[1,1,0,0,-5]];perimeter=orthogonalPerimeter;outlineConnect=0;targetShapes=umlLifeline;portConstraint=eastwest;newEdgeStyle={&quot;curved&quot;:0,&quot;rounded&quot;:0};" parent="yOAL5EZe46vmhs-vISSW-25" vertex="1">
          <mxGeometry x="45" y="130" width="10" height="180" as="geometry" />
        </mxCell>
        <mxCell id="yOAL5EZe46vmhs-vISSW-28" value="getStatoBiglietto" style="html=1;verticalAlign=bottom;endArrow=block;edgeStyle=elbowEdgeStyle;elbow=vertical;curved=0;rounded=0;" parent="yOAL5EZe46vmhs-vISSW-25" edge="1">
          <mxGeometry relative="1" as="geometry">
            <mxPoint x="-55" y="150" as="sourcePoint" />
            <Array as="points">
              <mxPoint y="150" />
            </Array>
            <mxPoint x="45" y="150" as="targetPoint" />
          </mxGeometry>
        </mxCell>
        <mxCell id="yOAL5EZe46vmhs-vISSW-29" value="getStatoBiglietto" style="html=1;verticalAlign=bottom;endArrow=block;edgeStyle=elbowEdgeStyle;elbow=vertical;curved=0;rounded=0;" parent="yOAL5EZe46vmhs-vISSW-25" edge="1">
          <mxGeometry x="-0.0028" relative="1" as="geometry">
            <mxPoint x="155" y="300" as="sourcePoint" />
            <Array as="points">
              <mxPoint x="110" y="300" />
            </Array>
            <mxPoint x="55" y="300" as="targetPoint" />
            <mxPoint as="offset" />
          </mxGeometry>
        </mxCell>
        <mxCell id="yOAL5EZe46vmhs-vISSW-30" value="getStatoBiglietto" style="html=1;verticalAlign=bottom;endArrow=block;edgeStyle=elbowEdgeStyle;elbow=vertical;curved=0;rounded=0;" parent="yOAL5EZe46vmhs-vISSW-25" edge="1">
          <mxGeometry relative="1" as="geometry">
            <mxPoint x="55" y="150" as="sourcePoint" />
            <Array as="points">
              <mxPoint x="110" y="150" />
            </Array>
            <mxPoint x="155" y="150" as="targetPoint" />
          </mxGeometry>
        </mxCell>
        <mxCell id="yOAL5EZe46vmhs-vISSW-31" value="" style="html=1;verticalAlign=bottom;endArrow=block;edgeStyle=elbowEdgeStyle;elbow=horizontal;curved=0;rounded=0;" parent="yOAL5EZe46vmhs-vISSW-25" target="yOAL5EZe46vmhs-vISSW-19" edge="1">
          <mxGeometry x="-0.0084" relative="1" as="geometry">
            <mxPoint x="45" y="300" as="sourcePoint" />
            <Array as="points">
              <mxPoint x="-30" y="300" />
            </Array>
            <mxPoint x="-95" y="300" as="targetPoint" />
            <mxPoint as="offset" />
          </mxGeometry>
        </mxCell>
        <mxCell id="yOAL5EZe46vmhs-vISSW-32" value="" style="group" parent="1" vertex="1" connectable="0">
          <mxGeometry x="900" y="40" width="100" height="310" as="geometry" />
        </mxCell>
        <mxCell id="yOAL5EZe46vmhs-vISSW-33" value="BigliettoDAO" style="shape=umlLifeline;perimeter=lifelinePerimeter;whiteSpace=wrap;html=1;container=0;dropTarget=0;collapsible=0;recursiveResize=0;outlineConnect=0;portConstraint=eastwest;newEdgeStyle={&quot;edgeStyle&quot;:&quot;elbowEdgeStyle&quot;,&quot;elbow&quot;:&quot;vertical&quot;,&quot;curved&quot;:0,&quot;rounded&quot;:0};" parent="yOAL5EZe46vmhs-vISSW-32" vertex="1">
          <mxGeometry width="100" height="210" as="geometry" />
        </mxCell>
        <mxCell id="yOAL5EZe46vmhs-vISSW-34" value="" style="html=1;points=[[0,0,0,0,5],[0,1,0,0,-5],[1,0,0,0,5],[1,1,0,0,-5]];perimeter=orthogonalPerimeter;outlineConnect=0;targetShapes=umlLifeline;portConstraint=eastwest;newEdgeStyle={&quot;curved&quot;:0,&quot;rounded&quot;:0};" parent="yOAL5EZe46vmhs-vISSW-32" vertex="1">
          <mxGeometry x="45" y="130" width="10" height="180" as="geometry" />
        </mxCell>
        <mxCell id="yOAL5EZe46vmhs-vISSW-35" value="setStatoBiglietto" style="html=1;verticalAlign=bottom;endArrow=block;edgeStyle=elbowEdgeStyle;elbow=vertical;curved=0;rounded=0;" parent="yOAL5EZe46vmhs-vISSW-32" edge="1">
          <mxGeometry relative="1" as="geometry">
            <mxPoint x="-55" y="190" as="sourcePoint" />
            <Array as="points">
              <mxPoint y="190" />
            </Array>
            <mxPoint x="45" y="190" as="targetPoint" />
          </mxGeometry>
        </mxCell>
        <mxCell id="yOAL5EZe46vmhs-vISSW-36" value="loadEvents" style="html=1;verticalAlign=bottom;endArrow=block;edgeStyle=elbowEdgeStyle;elbow=vertical;curved=0;rounded=0;" parent="1" source="yOAL5EZe46vmhs-vISSW-19" target="yOAL5EZe46vmhs-vISSW-10" edge="1">
          <mxGeometry x="-0.0028" relative="1" as="geometry">
            <mxPoint x="620" y="290" as="sourcePoint" />
            <Array as="points">
              <mxPoint x="510" y="270" />
            </Array>
            <mxPoint x="570" y="290" as="targetPoint" />
            <mxPoint as="offset" />
          </mxGeometry>
        </mxCell>
        <mxCell id="yOAL5EZe46vmhs-vISSW-37" value="getEventi" style="html=1;verticalAlign=bottom;endArrow=block;edgeStyle=elbowEdgeStyle;elbow=vertical;curved=0;rounded=0;" parent="1" source="yOAL5EZe46vmhs-vISSW-27" target="yOAL5EZe46vmhs-vISSW-19" edge="1">
          <mxGeometry relative="1" as="geometry">
            <mxPoint x="745" y="200" as="sourcePoint" />
            <Array as="points">
              <mxPoint x="790" y="270" />
            </Array>
            <mxPoint x="845" y="200" as="targetPoint" />
          </mxGeometry>
        </mxCell>
        <mxCell id="yOAL5EZe46vmhs-vISSW-38" value="getAllDate" style="html=1;verticalAlign=bottom;endArrow=block;edgeStyle=elbowEdgeStyle;elbow=vertical;curved=0;rounded=0;" parent="1" source="yOAL5EZe46vmhs-vISSW-34" target="yOAL5EZe46vmhs-vISSW-27" edge="1">
          <mxGeometry x="-0.0028" relative="1" as="geometry">
            <mxPoint x="625" y="280" as="sourcePoint" />
            <Array as="points">
              <mxPoint x="900" y="270" />
            </Array>
            <mxPoint x="405" y="280" as="targetPoint" />
            <mxPoint as="offset" />
          </mxGeometry>
        </mxCell>
        <mxCell id="yOAL5EZe46vmhs-vISSW-39" value="" style="group" parent="1" vertex="1" connectable="0">
          <mxGeometry x="570" y="40" width="100" height="310" as="geometry" />
        </mxCell>
        <mxCell id="yOAL5EZe46vmhs-vISSW-40" value="EntracePage" style="shape=umlLifeline;perimeter=lifelinePerimeter;whiteSpace=wrap;html=1;container=0;dropTarget=0;collapsible=0;recursiveResize=0;outlineConnect=0;portConstraint=eastwest;newEdgeStyle={&quot;edgeStyle&quot;:&quot;elbowEdgeStyle&quot;,&quot;elbow&quot;:&quot;vertical&quot;,&quot;curved&quot;:0,&quot;rounded&quot;:0};" parent="yOAL5EZe46vmhs-vISSW-39" vertex="1">
          <mxGeometry width="100" height="210" as="geometry" />
        </mxCell>
        <mxCell id="yOAL5EZe46vmhs-vISSW-41" value="" style="html=1;points=[[0,0,0,0,5],[0,1,0,0,-5],[1,0,0,0,5],[1,1,0,0,-5]];perimeter=orthogonalPerimeter;outlineConnect=0;targetShapes=umlLifeline;portConstraint=eastwest;newEdgeStyle={&quot;curved&quot;:0,&quot;rounded&quot;:0};" parent="yOAL5EZe46vmhs-vISSW-39" vertex="1">
          <mxGeometry x="45" y="130" width="10" height="180" as="geometry" />
        </mxCell>
        <mxCell id="yOAL5EZe46vmhs-vISSW-42" value="verificaBiglietto" style="html=1;verticalAlign=bottom;endArrow=block;edgeStyle=elbowEdgeStyle;elbow=horizontal;curved=0;rounded=0;" parent="yOAL5EZe46vmhs-vISSW-39" target="yOAL5EZe46vmhs-vISSW-19" edge="1">
          <mxGeometry relative="1" as="geometry">
            <mxPoint x="60" y="150" as="sourcePoint" />
            <Array as="points">
              <mxPoint x="115" y="150" />
            </Array>
            <mxPoint x="160" y="150" as="targetPoint" />
            <mxPoint as="offset" />
          </mxGeometry>
        </mxCell>
        <mxCell id="yOAL5EZe46vmhs-vISSW-43" value="" style="html=1;verticalAlign=bottom;endArrow=block;edgeStyle=elbowEdgeStyle;elbow=horizontal;curved=0;rounded=0;" parent="1" source="yOAL5EZe46vmhs-vISSW-19" target="yOAL5EZe46vmhs-vISSW-41" edge="1">
          <mxGeometry x="-0.0084" relative="1" as="geometry">
            <mxPoint x="825" y="340" as="sourcePoint" />
            <Array as="points">
              <mxPoint x="690" y="340" />
            </Array>
            <mxPoint x="615" y="340" as="targetPoint" />
            <mxPoint as="offset" />
          </mxGeometry>
        </mxCell>
      </root>
    </mxGraphModel>
  </diagram>
</mxfile>
